<svg xmlns="http://www.w3.org/2000/svg" xmlns:xlink="http://www.w3.org/1999/xlink" aria-hidden="true" role="img" class="iconify iconify--material-symbols" width="32" height="32" preserveAspectRatio="xMidYMid meet" viewBox="0 0 24 24"><path fill="currentColor" d="m12 21l-1.45-1.3q-3.925-3.5-6.238-6.088Q2 11.025 2 8.15Q2 5.8 3.575 4.225Q5.15 2.65 7.5 2.65q1.325 0 2.5.562q1.175.563 2 1.538q.825-.975 2-1.538q1.175-.562 2.5-.562q2.35 0 3.925 1.575Q22 5.8 22 8.15q0 2.875-2.312 5.462Q17.375 16.2 13.45 19.7Zm0-9.525Zm0 6.825q3.575-3.25 5.788-5.6Q20 10.35 20 8.15q0-1.5-1-2.5t-2.5-1q-1.175 0-2.175.662q-1 .663-1.375 1.688h-1.9q-.375-1.025-1.375-1.688q-1-.662-2.175-.662q-1.5 0-2.5 1t-1 2.5q0 2.2 2.213 4.55Q8.425 15.05 12 18.3Z"></path></svg>